<svg width="492" height="607" viewBox="0 0 492 607" fill="none" xmlns="http://www.w3.org/2000/svg">
<path fill-rule="evenodd" clip-rule="evenodd" d="M314.264 513.004C323.729 525.381 352.851 550.134 393.621 550.134C434.391 550.134 461.572 523.925 470.065 510.82C477.103 502.569 491.179 480.096 491.179 456.217V173.735C491.179 170.823 490.014 163.688 485.354 158.446C480.695 153.204 383.914 56.2769 336.106 8.46853C331.009 3.85757 317.613 -3.47141 304.8 4.10025C291.986 11.6719 289.754 28.1258 290.239 35.4062V206.391C261.755 178.551 207.168 124.143 177.773 94.7481C168.308 82.3713 139.187 57.6177 98.4161 57.6177C57.6457 57.6177 30.4655 83.8274 21.9716 96.9322C14.9339 105.183 0.858398 127.656 0.858398 151.536V434.017C0.858398 436.929 2.02327 444.064 6.68274 449.306C11.3422 454.548 108.123 551.475 155.931 599.284C161.028 603.895 174.424 611.224 187.237 603.652C200.051 596.08 202.284 579.626 201.798 572.346V401.361C230.282 429.201 284.869 483.609 314.264 513.004ZM171.063 237.745C156.041 254.231 148.992 272.115 146.661 288.943C145.555 294.785 145.058 300.068 145.014 304.424V509.005L56.1936 422.367V165.367C54.7375 153.233 58.2321 126.49 83.8592 116.588C109.486 106.687 129.483 122.17 136.278 131.149L214.673 208.819C207.882 211.063 201.027 214.181 194.252 218.368C184.988 223.885 177.34 230.535 171.063 237.745ZM277.369 398.931L355.763 476.6C362.558 485.579 382.555 501.062 408.182 491.161C433.809 481.259 437.304 454.516 435.847 442.382V185.381L347.027 98.7441V303.325C346.983 307.698 346.482 313.006 345.367 318.875C343.028 335.676 335.983 353.525 320.996 369.984C314.726 377.189 307.086 383.837 297.834 389.354C291.045 393.554 284.175 396.682 277.369 398.931ZM289.889 303.693C289.889 327.818 270.332 347.376 246.207 347.376C232.636 347.376 220.511 341.188 212.499 331.479C212.165 331.075 211.838 330.664 211.519 330.248C205.879 322.889 202.527 313.685 202.527 303.697C202.527 279.572 222.085 260.015 246.21 260.015C260.106 260.015 272.487 266.503 280.488 276.617C286.375 284.06 289.889 293.466 289.889 303.693Z" fill="url(#paint0_linear_64_147)"/>
<path fill-rule="evenodd" clip-rule="evenodd" d="M346.296 305.15H346.681V96.9291H291.35V207.469C298.526 214.476 303.916 219.665 306.637 222.15C320.033 234.381 331.148 251.514 335.031 258.552C340.532 268.524 346.262 285.545 346.296 305.15Z" fill="url(#paint1_linear_64_147)"/>
<path fill-rule="evenodd" clip-rule="evenodd" d="M145.776 305.153H145.741V507.55H201.072V400.654C193.703 393.456 188.168 388.125 185.398 385.596C172.002 373.365 160.888 356.231 157.005 349.194C151.744 339.658 146.274 323.676 145.776 305.153Z" fill="url(#paint2_linear_64_147)"/>
<path fill-rule="evenodd" clip-rule="evenodd" d="M214.525 334.334L277.202 399.298C317.521 386.234 346.675 348.372 346.675 303.7C346.675 275.69 335.213 250.357 316.723 232.136L276.566 272.294C284.779 280.236 289.886 291.371 289.886 303.699C289.886 327.825 270.329 347.382 246.204 347.382C233.876 347.382 222.74 342.275 214.798 334.062L214.525 334.334ZM187.946 221.836L164.342 245.44C170.842 236.323 178.828 228.337 187.946 221.836Z" fill="url(#paint3_linear_64_147)"/>
<path fill-rule="evenodd" clip-rule="evenodd" d="M279 273.369L214.098 208.466C174.356 221.861 145.737 259.437 145.737 303.696C145.737 332.068 157.497 357.692 176.408 375.962L216.576 335.794C207.935 327.813 202.523 316.386 202.523 303.696C202.523 279.571 222.08 260.013 246.206 260.013C258.896 260.013 270.323 265.425 278.303 274.066L279 273.369Z" fill="url(#paint4_linear_64_147)"/>
<defs>
<linearGradient id="paint0_linear_64_147" x1="59.4425" y1="607.364" x2="534.96" y2="56.8621" gradientUnits="userSpaceOnUse">
<stop offset="0.14398" stop-color="#114D95"/>
<stop offset="0.822713" stop-color="#38D133"/>
</linearGradient>
<linearGradient id="paint1_linear_64_147" x1="319.015" y1="96.9291" x2="319.015" y2="305.15" gradientUnits="userSpaceOnUse">
<stop stop-color="white" stop-opacity="0"/>
<stop offset="1" stop-color="white" stop-opacity="0.1"/>
</linearGradient>
<linearGradient id="paint2_linear_64_147" x1="173.407" y1="305.153" x2="173.407" y2="507.55" gradientUnits="userSpaceOnUse">
<stop stop-color="#D9D9D9" stop-opacity="0.1"/>
<stop offset="1" stop-color="white" stop-opacity="0"/>
</linearGradient>
<linearGradient id="paint3_linear_64_147" x1="346.674" y1="275.286" x2="254.992" y2="380.114" gradientUnits="userSpaceOnUse">
<stop offset="0.623442" stop-color="white" stop-opacity="0"/>
<stop offset="1" stop-color="white" stop-opacity="0.2"/>
</linearGradient>
<linearGradient id="paint4_linear_64_147" x1="241.112" y1="236.716" x2="145.737" y2="337.187" gradientUnits="userSpaceOnUse">
<stop stop-color="white" stop-opacity="0.2"/>
<stop offset="0.317967" stop-color="white" stop-opacity="0"/>
</linearGradient>
</defs>
</svg>
